<svg width="758" height="651" viewBox="0 0 758 651" fill="none" xmlns="http://www.w3.org/2000/svg">
<g clip-path="url(#clip0)">
<path d="M81.3163 0C72.8467 0.00963936 64.7267 3.37844 58.7378 9.36736C52.7489 15.3563 49.3801 23.4762 49.3705 31.9458V615.055C49.3802 623.524 52.7491 631.644 58.738 637.633C64.7269 643.622 72.8467 646.99 81.3163 647H400.713C409.183 646.99 417.303 643.622 423.292 637.633C429.281 631.644 432.65 623.524 432.659 615.055V31.9458C432.65 23.4762 429.281 15.3563 423.292 9.36739C417.303 3.37848 409.183 0.00967748 400.713 3.8147e-05L81.3163 0Z" fill="#E6E6E6"/>
<path d="M91.7572 18.1501C85.3315 18.1575 79.1711 20.7133 74.6274 25.2569C70.0838 29.8006 67.5279 35.961 67.5206 42.3867V604.613C67.5278 611.039 70.0836 617.199 74.6273 621.743C79.1709 626.287 85.3314 628.843 91.7572 628.85H390.273C396.698 628.843 402.859 626.287 407.402 621.743C411.946 617.199 414.502 611.039 414.509 604.613V42.3867C414.502 35.961 411.946 29.8006 407.402 25.2569C402.859 20.7133 396.698 18.1575 390.273 18.1501H91.7572Z" fill="white"/>
<path d="M385.149 136.647H96.8809C95.4656 136.645 94.1087 136.082 93.108 135.082C92.1072 134.081 91.5443 132.724 91.5426 131.309V59.8018C91.5443 58.3865 92.1072 57.0297 93.108 56.0289C94.1087 55.0282 95.4656 54.4652 96.8809 54.4635H385.149C386.564 54.4652 387.921 55.0282 388.922 56.0289C389.922 57.0297 390.485 58.3865 390.487 59.8018V131.309C390.485 132.724 389.922 134.081 388.922 135.082C387.921 136.082 386.564 136.645 385.149 136.647V136.647ZM96.8809 56.5988C96.0317 56.5997 95.2175 56.9375 94.617 57.538C94.0166 58.1384 93.6788 58.9526 93.6779 59.8018V131.309C93.6788 132.158 94.0166 132.972 94.617 133.573C95.2175 134.173 96.0317 134.511 96.8809 134.512H385.149C385.998 134.511 386.812 134.173 387.413 133.573C388.013 132.972 388.351 132.158 388.352 131.309V59.8018C388.351 58.9526 388.013 58.1384 387.413 57.538C386.812 56.9375 385.998 56.5997 385.149 56.5988H96.8809Z" fill="#E6E6E6"/>
<path d="M385.149 419.576H96.8809C95.4656 419.574 94.1087 419.011 93.108 418.011C92.1072 417.01 91.5443 415.653 91.5426 414.238V281.874C91.5443 280.459 92.1072 279.102 93.108 278.102C94.1087 277.101 95.4656 276.538 96.8809 276.536H385.149C386.564 276.538 387.921 277.101 388.922 278.102C389.922 279.102 390.485 280.459 390.487 281.874V414.238C390.485 415.653 389.922 417.01 388.922 418.011C387.921 419.011 386.564 419.574 385.149 419.576ZM96.8809 278.671C96.0317 278.672 95.2175 279.01 94.617 279.611C94.0166 280.211 93.6788 281.025 93.6779 281.874V414.238C93.6788 415.087 94.0166 415.901 94.617 416.502C95.2175 417.102 96.0317 417.44 96.8809 417.441H385.149C385.998 417.44 386.812 417.102 387.413 416.502C388.013 415.901 388.351 415.087 388.352 414.238V281.874C388.351 281.025 388.013 280.211 387.413 279.611C386.812 279.01 385.998 278.672 385.149 278.671L96.8809 278.671Z" fill="#E6E6E6"/>
<path d="M383.013 247.683H254.894C253.479 247.682 252.122 247.119 251.121 246.118C250.12 245.117 249.557 243.76 249.556 242.345V170.838C249.557 169.423 250.12 168.066 251.121 167.065C252.122 166.064 253.479 165.501 254.894 165.5H383.013C384.429 165.501 385.786 166.064 386.786 167.065C387.787 168.066 388.35 169.423 388.352 170.838V242.345C388.35 243.76 387.787 245.117 386.786 246.118C385.786 247.119 384.429 247.682 383.013 247.683V247.683ZM254.894 167.635C254.045 167.636 253.231 167.974 252.63 168.574C252.03 169.175 251.692 169.989 251.691 170.838V242.345C251.692 243.194 252.03 244.008 252.63 244.609C253.231 245.209 254.045 245.547 254.894 245.548H383.013C383.863 245.547 384.677 245.209 385.277 244.609C385.878 244.008 386.215 243.194 386.216 242.345V170.838C386.215 169.989 385.878 169.175 385.277 168.574C384.677 167.974 383.863 167.636 383.013 167.635L254.894 167.635Z" fill="#E6E6E6"/>
<path d="M225 592.536H96.8809C95.4656 592.535 94.1087 591.972 93.108 590.971C92.1072 589.97 91.5443 588.613 91.5426 587.198V453.767C91.5443 452.352 92.1072 450.995 93.108 449.994C94.1087 448.994 95.4656 448.431 96.8809 448.429H225C226.416 448.431 227.772 448.994 228.773 449.994C229.774 450.995 230.337 452.352 230.339 453.767V587.198C230.337 588.613 229.774 589.97 228.773 590.971C227.772 591.972 226.416 592.535 225 592.536ZM96.8809 450.564C96.0317 450.565 95.2175 450.903 94.617 451.503C94.0166 452.104 93.6788 452.918 93.6779 453.767V587.198C93.6788 588.047 94.0166 588.862 94.617 589.462C95.2175 590.063 96.0317 590.4 96.8809 590.401H225C225.849 590.4 226.664 590.063 227.264 589.462C227.865 588.862 228.202 588.047 228.203 587.198V453.767C228.202 452.918 227.865 452.104 227.264 451.503C226.664 450.903 225.849 450.565 225 450.564H96.8809Z" fill="#E6E6E6"/>
<path d="M383.013 592.536H254.894C253.479 592.535 252.122 591.972 251.121 590.971C250.12 589.97 249.557 588.613 249.556 587.198V453.767C249.557 452.352 250.12 450.995 251.121 449.994C252.122 448.994 253.479 448.431 254.894 448.429H383.013C384.429 448.431 385.786 448.994 386.786 449.994C387.787 450.995 388.35 452.352 388.352 453.767V587.198C388.35 588.613 387.787 589.97 386.786 590.971C385.786 591.972 384.429 592.535 383.013 592.536V592.536ZM254.894 450.564C254.045 450.565 253.231 450.903 252.63 451.503C252.03 452.104 251.692 452.918 251.691 453.767V587.198C251.692 588.047 252.03 588.862 252.63 589.462C253.231 590.063 254.045 590.4 254.894 590.401H383.013C383.863 590.4 384.677 590.063 385.277 589.462C385.878 588.862 386.215 588.047 386.216 587.198V453.767C386.215 452.918 385.878 452.104 385.277 451.503C384.677 450.903 383.863 450.565 383.013 450.564H254.894Z" fill="#E6E6E6"/>
<path d="M139.536 345.171C151.546 345.171 161.282 335.435 161.282 323.425C161.282 311.416 151.546 301.68 139.536 301.68C127.527 301.68 117.791 311.416 117.791 323.425C117.791 335.435 127.527 345.171 139.536 345.171Z" fill="#EECD53"/>
<path d="M189.758 308.929C188.797 308.929 187.875 309.31 187.195 309.99C186.515 310.67 186.134 311.592 186.134 312.553C186.134 313.514 186.515 314.436 187.195 315.115C187.875 315.795 188.797 316.177 189.758 316.177H360.614C361.574 316.175 362.495 315.793 363.173 315.113C363.851 314.434 364.232 313.513 364.232 312.553C364.232 311.593 363.851 310.672 363.173 309.992C362.495 309.313 361.574 308.93 360.614 308.929H189.758Z" fill="#E6E6E6"/>
<path d="M189.758 330.674C189.281 330.673 188.81 330.766 188.369 330.948C187.929 331.13 187.529 331.397 187.191 331.733C186.854 332.07 186.587 332.47 186.404 332.91C186.222 333.35 186.128 333.822 186.128 334.298C186.128 334.775 186.222 335.246 186.404 335.686C186.587 336.126 186.854 336.526 187.191 336.863C187.529 337.2 187.929 337.466 188.369 337.648C188.81 337.83 189.281 337.923 189.758 337.922H263.278C264.239 337.922 265.161 337.54 265.841 336.861C266.52 336.181 266.902 335.259 266.902 334.298C266.902 333.337 266.52 332.415 265.841 331.735C265.161 331.056 264.239 330.674 263.278 330.674H189.758Z" fill="#E6E6E6"/>
<path d="M122.857 365.438C120.1 365.438 117.857 367.064 117.857 369.063C117.857 371.061 120.1 372.687 122.857 372.687H358.586C361.343 372.687 363.587 371.061 363.587 369.063C363.587 367.064 361.343 365.438 358.586 365.438H122.857Z" fill="#E6E6E6"/>
<path d="M122.857 387.184C120.1 387.184 117.857 388.81 117.857 390.808C117.857 392.806 120.1 394.432 122.857 394.432H358.586C361.343 394.432 363.587 392.806 363.587 390.808C363.587 388.81 361.343 387.184 358.586 387.184H122.857Z" fill="#E6E6E6"/>
<path d="M141.672 114.557C153.681 114.557 163.417 104.821 163.417 92.8115C163.417 80.8019 153.681 71.0662 141.672 71.0662C129.662 71.0662 119.927 80.8019 119.927 92.8115C119.927 104.821 129.662 114.557 141.672 114.557Z" fill="#EECD53"/>
<path d="M191.893 78.3146C190.933 78.3162 190.013 78.6988 189.334 79.3783C188.656 80.0578 188.275 80.9787 188.275 81.9389C188.275 82.899 188.656 83.82 189.334 84.4995C190.013 85.179 190.933 85.5615 191.893 85.5631H362.75C363.226 85.5639 363.698 85.4707 364.138 85.2889C364.579 85.1072 364.979 84.8403 365.316 84.5037C365.653 84.1671 365.921 83.7673 366.103 83.3272C366.286 82.8871 366.38 82.4153 366.38 81.9389C366.38 81.4624 366.286 80.9906 366.103 80.5505C365.921 80.1104 365.653 79.7106 365.316 79.374C364.979 79.0374 364.579 78.7706 364.138 78.5888C363.698 78.407 363.226 78.3138 362.75 78.3146H191.893Z" fill="#E6E6E6"/>
<path d="M191.893 100.06C190.933 100.062 190.013 100.444 189.334 101.124C188.656 101.803 188.275 102.724 188.275 103.684C188.275 104.644 188.656 105.565 189.334 106.245C190.013 106.924 190.933 107.307 191.893 107.308H265.413C265.89 107.309 266.362 107.216 266.802 107.034C267.242 106.853 267.643 106.586 267.98 106.249C268.317 105.912 268.585 105.513 268.767 105.073C268.95 104.632 269.043 104.161 269.043 103.684C269.043 103.208 268.95 102.736 268.767 102.296C268.585 101.856 268.317 101.456 267.98 101.119C267.643 100.783 267.242 100.516 266.802 100.334C266.362 100.152 265.89 100.059 265.413 100.06H191.893Z" fill="#E6E6E6"/>
<path d="M224.887 247.696H104.7L132.984 198.706C133.491 197.828 134.22 197.099 135.098 196.592C135.976 196.085 136.972 195.818 137.986 195.818C139 195.818 139.996 196.085 140.874 196.592C141.752 197.099 142.481 197.828 142.988 198.706L155.07 219.634L175.615 184.05C176.25 182.951 177.163 182.038 178.262 181.403C179.361 180.768 180.608 180.434 181.878 180.434C183.147 180.434 184.394 180.768 185.493 181.403C186.593 182.038 187.506 182.951 188.14 184.05L224.887 247.696ZM108.398 245.561H221.189L186.291 185.117C185.843 184.343 185.2 183.699 184.426 183.252C183.651 182.805 182.772 182.569 181.878 182.569C180.983 182.569 180.104 182.805 179.33 183.252C178.555 183.699 177.912 184.343 177.465 185.117L155.07 223.904L141.138 199.774C140.819 199.22 140.359 198.761 139.806 198.441C139.253 198.122 138.625 197.953 137.986 197.953C137.347 197.953 136.719 198.122 136.166 198.441C135.612 198.761 135.153 199.22 134.834 199.774L108.398 245.561Z" fill="#E6E6E6"/>
<path d="M378.629 247.696H258.442L286.726 198.706C287.233 197.828 287.962 197.099 288.84 196.592C289.718 196.085 290.715 195.818 291.728 195.818C292.742 195.818 293.738 196.085 294.616 196.592C295.494 197.099 296.224 197.828 296.73 198.706L308.813 219.634L329.358 184.05C329.992 182.951 330.905 182.038 332.004 181.403C333.104 180.768 334.351 180.434 335.62 180.434C336.89 180.434 338.137 180.768 339.236 181.403C340.335 182.038 341.248 182.951 341.883 184.05L378.629 247.696ZM262.141 245.561H374.931L340.033 185.117C339.586 184.343 338.943 183.699 338.168 183.252C337.393 182.805 336.515 182.569 335.62 182.569C334.726 182.569 333.847 182.805 333.072 183.252C332.298 183.699 331.654 184.343 331.207 185.117L308.813 223.904L294.881 199.774C294.561 199.22 294.102 198.761 293.549 198.441C292.995 198.122 292.367 197.953 291.728 197.953C291.089 197.953 290.462 198.122 289.908 198.441C289.355 198.761 288.895 199.22 288.576 199.774L262.141 245.561Z" fill="#E6E6E6"/>
<path d="M225 247.683H96.8809C95.4656 247.682 94.1087 247.119 93.108 246.118C92.1072 245.117 91.5443 243.76 91.5426 242.345V170.838C91.5443 169.423 92.1072 168.066 93.108 167.065C94.1087 166.064 95.4656 165.501 96.8809 165.5H225C226.416 165.501 227.772 166.064 228.773 167.065C229.774 168.066 230.337 169.423 230.339 170.838V242.345C230.337 243.76 229.774 245.117 228.773 246.118C227.772 247.119 226.416 247.682 225 247.683ZM96.8809 167.635C96.0317 167.636 95.2175 167.974 94.617 168.574C94.0166 169.175 93.6788 169.989 93.6779 170.838V242.345C93.6788 243.194 94.0166 244.008 94.617 244.609C95.2175 245.209 96.0317 245.547 96.8809 245.548H225C225.849 245.547 226.664 245.209 227.264 244.609C227.865 244.008 228.202 243.194 228.203 242.345V170.838C228.202 169.989 227.865 169.175 227.264 168.574C226.664 167.974 225.849 167.636 225 167.635L96.8809 167.635Z" fill="#E6E6E6"/>
<path d="M124.181 475.945C123.219 475.945 122.298 476.327 121.618 477.006C120.938 477.686 120.556 478.608 120.556 479.569C120.556 480.53 120.938 481.452 121.618 482.132C122.298 482.811 123.219 483.193 124.181 483.193H197.701C198.661 483.192 199.581 482.809 200.259 482.13C200.938 481.45 201.319 480.529 201.319 479.569C201.319 478.609 200.938 477.688 200.259 477.008C199.581 476.329 198.661 475.946 197.701 475.945H124.181Z" fill="#E6E6E6"/>
<path d="M124.181 497.298C123.704 497.297 123.232 497.39 122.792 497.572C122.351 497.754 121.951 498.021 121.614 498.357C121.277 498.694 121.009 499.094 120.827 499.534C120.644 499.974 120.55 500.446 120.55 500.922C120.55 501.399 120.644 501.87 120.827 502.31C121.009 502.751 121.277 503.15 121.614 503.487C121.951 503.824 122.351 504.09 122.792 504.272C123.232 504.454 123.704 504.547 124.181 504.546H197.701C198.661 504.545 199.581 504.162 200.259 503.483C200.938 502.803 201.319 501.882 201.319 500.922C201.319 499.962 200.938 499.041 200.259 498.362C199.581 497.682 198.661 497.3 197.701 497.298H124.181Z" fill="#E6E6E6"/>
<path d="M160.941 565.021C156.429 565.021 152.018 563.683 148.267 561.176C144.515 558.669 141.591 555.106 139.864 550.938C138.138 546.769 137.686 542.182 138.566 537.757C139.447 533.332 141.619 529.267 144.81 526.077C148 522.886 152.065 520.714 156.49 519.833C160.915 518.953 165.502 519.405 169.671 521.131C173.839 522.858 177.402 525.782 179.909 529.534C182.416 533.285 183.754 537.696 183.754 542.208C183.747 548.256 181.341 554.055 177.064 558.331C172.788 562.608 166.989 565.014 160.941 565.021ZM160.941 521.53C156.851 521.53 152.853 522.743 149.453 525.015C146.053 527.287 143.402 530.516 141.837 534.295C140.272 538.073 139.863 542.231 140.661 546.242C141.458 550.253 143.428 553.937 146.32 556.829C149.211 559.721 152.896 561.69 156.907 562.488C160.918 563.286 165.075 562.876 168.854 561.311C172.632 559.746 175.861 557.096 178.133 553.696C180.406 550.295 181.618 546.297 181.618 542.208C181.612 536.726 179.431 531.47 175.555 527.594C171.679 523.717 166.423 521.537 160.941 521.53V521.53Z" fill="#E6E6E6"/>
<path d="M355.714 565.021C356.675 565.021 357.597 564.639 358.276 563.959C358.956 563.279 359.338 562.358 359.338 561.396C359.338 560.435 358.956 559.513 358.276 558.834C357.597 558.154 356.675 557.772 355.714 557.772H282.194C281.234 557.774 280.313 558.156 279.635 558.836C278.957 559.515 278.576 560.436 278.576 561.396C278.576 562.357 278.957 563.277 279.635 563.957C280.313 564.636 281.234 565.019 282.194 565.021H355.714Z" fill="#E6E6E6"/>
<path d="M355.714 543.667C356.674 543.666 357.594 543.283 358.273 542.604C358.951 541.924 359.332 541.003 359.332 540.043C359.332 539.083 358.951 538.162 358.273 537.483C357.594 536.803 356.674 536.421 355.714 536.419H282.194C281.234 536.421 280.313 536.803 279.635 537.483C278.957 538.162 278.576 539.083 278.576 540.043C278.576 541.003 278.957 541.924 279.635 542.604C280.313 543.283 281.234 543.666 282.194 543.667H355.714Z" fill="#E6E6E6"/>
<path d="M318.953 475.945C323.465 475.945 327.876 477.283 331.628 479.789C335.379 482.296 338.303 485.859 340.03 490.028C341.756 494.196 342.208 498.783 341.328 503.208C340.448 507.633 338.275 511.698 335.085 514.889C331.894 518.079 327.829 520.252 323.404 521.132C318.979 522.012 314.392 521.561 310.223 519.834C306.055 518.107 302.492 515.183 299.985 511.432C297.479 507.68 296.141 503.27 296.141 498.758C296.147 492.709 298.553 486.911 302.83 482.634C307.107 478.357 312.905 475.952 318.953 475.945ZM318.953 519.435C323.043 519.435 327.041 518.223 330.441 515.95C333.842 513.678 336.492 510.449 338.057 506.671C339.622 502.892 340.032 498.735 339.234 494.724C338.436 490.713 336.467 487.028 333.575 484.136C330.683 481.245 326.999 479.275 322.988 478.477C318.977 477.68 314.819 478.089 311.041 479.654C307.262 481.219 304.033 483.869 301.761 487.27C299.489 490.67 298.276 494.668 298.276 498.758C298.282 504.24 300.463 509.495 304.339 513.372C308.216 517.248 313.471 519.429 318.953 519.435V519.435Z" fill="#E6E6E6"/>
<path d="M757.569 648.109H0V645.928H757.964L757.569 648.109Z" fill="#3F3D56"/>
<path d="M593.304 358.754L578.675 389.733L567.488 363.057L582.117 353.591L593.304 358.754Z" fill="#FFB8B8"/>
<path d="M675.484 367.79L680.217 391.454L700.87 363.917L684.52 355.312L675.484 367.79Z" fill="#FFB8B8"/>
<path d="M653.541 624.657C645.193 630.599 637.249 633.585 631.167 622.936C639.163 556.04 639.499 492.34 631.167 433.62L567.488 629.82L544.254 626.378C557.243 556.072 567.162 452.292 579.535 348.428L678.496 347.568C691.608 422.458 669.774 519.83 653.541 624.657Z" fill="#FAFAFA"/>
<path d="M595.629 649.646L547.085 646.144C545.309 645.386 543.831 644.065 542.881 642.384C541.93 640.703 541.559 638.756 541.824 636.844L544.011 621.104C544.053 620.808 544.189 620.532 544.4 620.319C544.611 620.106 544.885 619.967 545.181 619.922C545.477 619.877 545.78 619.928 546.045 620.068C546.31 620.208 546.522 620.43 546.651 620.701C549.771 626.92 554.816 627.153 561.944 620.901C563.509 616.731 566.474 614.916 571.298 616.224C580.549 630.264 591.613 625.704 604.984 636.586C605.806 637.503 606.412 638.594 606.757 639.776C607.101 640.959 607.176 642.204 606.975 643.42C606.774 644.635 606.303 645.79 605.596 646.799C604.89 647.808 603.965 648.645 602.891 649.249C601.792 649.867 600.566 650.225 599.307 650.293C598.047 650.362 596.789 650.141 595.629 649.646V649.646Z" fill="#2F2E41"/>
<path d="M681.682 649.646L633.137 646.144C631.361 645.386 629.884 644.065 628.933 642.384C627.983 640.703 627.611 638.756 627.877 636.844L630.063 621.104C630.105 620.808 630.242 620.532 630.453 620.319C630.664 620.106 630.937 619.967 631.234 619.922C631.53 619.877 631.833 619.928 632.098 620.068C632.362 620.208 632.575 620.43 632.704 620.701C635.824 626.92 640.868 627.153 647.997 620.901C649.561 616.731 652.527 614.916 657.35 616.224C666.602 630.264 677.665 625.704 691.036 636.586C691.859 637.503 692.465 638.594 692.809 639.776C693.154 640.959 693.229 642.204 693.028 643.42C692.827 644.635 692.356 645.79 691.649 646.799C690.942 647.808 690.018 648.645 688.944 649.249C687.845 649.867 686.618 650.225 685.359 650.293C684.1 650.362 682.842 650.141 681.682 649.646Z" fill="#2F2E41"/>
<path d="M639.342 178.474C657.402 178.474 672.042 163.834 672.042 145.774C672.042 127.714 657.402 113.074 639.342 113.074C621.282 113.074 606.642 127.714 606.642 145.774C606.642 163.834 621.282 178.474 639.342 178.474Z" fill="#FFB8B8"/>
<path d="M662.576 208.592H612.666C626.498 192.908 624.673 175.496 612.666 156.961H662.576C655.736 172.463 655.395 189.588 662.576 208.592Z" fill="#FFB8B8"/>
<path d="M681.078 363.917C647.33 380.305 613.482 378.452 579.535 358.754C572.045 312.728 569.234 256.966 568.448 196.993C568.415 194.599 569.243 192.273 570.783 190.438C572.322 188.604 574.469 187.384 576.833 187.002L621.701 179.765L643.214 202.138L657.843 184.067L677.201 192.078C678.845 192.759 680.241 193.926 681.203 195.422C682.166 196.919 682.648 198.674 682.586 200.452C680.479 261.208 679.434 317.818 681.078 363.917Z" fill="#EECD53"/>
<path d="M670.925 155.946C667.922 146.767 662.415 140.085 654.048 136.256C635.246 140.251 619.894 137.527 607.166 129.692C609.257 119.831 613.857 111.617 622.092 105.79C628.254 100.346 630.966 104.191 635.093 101.866C648.867 94.1063 666.817 103.081 674.182 117.069C675.835 119.949 676.691 123.217 676.664 126.537L670.925 155.946Z" fill="#B32A2A"/>
<path d="M704.312 367.36L678.496 354.452L674.194 190.952L678.316 192.22C683.676 193.869 688.403 197.116 691.867 201.527C695.33 205.937 697.363 211.301 697.693 216.898L698.288 289.052L704.312 367.36Z" fill="#EECD53"/>
<path d="M585.559 355.312L568.349 369.941C543.056 348.061 525.485 323.368 520.159 294.215L550.49 205.388C552.214 200.339 555.384 195.908 559.606 192.647C563.827 189.385 568.914 187.436 574.235 187.042L579.536 186.649L575.663 249.037L556.301 296.796C555.094 309.595 570.509 332.565 585.559 355.312Z" fill="#EECD53"/>
<path d="M667.74 154.379C669.641 154.379 671.182 151.682 671.182 148.356C671.182 145.029 669.641 142.332 667.74 142.332C665.838 142.332 664.297 145.029 664.297 148.356C664.297 151.682 665.838 154.379 667.74 154.379Z" fill="#FFB8B8"/>
</g>
<defs>
<clipPath id="clip0">
<rect width="757.964" height="650.306" fill="white"/>
</clipPath>
</defs>
</svg>
